<svg aria-hidden="true" style="position: absolute; width: 0; height: 0; overflow: hidden;" version="1.1" xmlns="http://www.w3.org/2000/svg" xmlns:xlink="http://www.w3.org/1999/xlink">
<defs>
<symbol id="arrow-long" viewBox="0 0 354 32">
<path d="M353.414 17.414c0.782-0.781 0.782-2.047 0-2.828l-12.728-12.728c-0.78-0.781-2.048-0.781-2.828 0-0.782 0.781-0.782 2.047 0 2.828l11.314 11.314-11.314 11.314c-0.782 0.781-0.782 2.047 0 2.829 0.78 0.781 2.048 0.781 2.828 0l12.728-12.728zM0 18l352-0v-4l-352 0v4z"></path>
</symbol>
<symbol id="facebook" viewBox="0 0 32 32">
<path d="M12.8 28.8v-12.8h-4.267v-4.267h4.267v-2.291c0-4.338 2.113-6.242 5.718-6.242 1.727 0 2.64 0.128 3.072 0.187v4.080h-2.459c-1.531 0-2.065 0.807-2.065 2.444v1.823h4.485l-0.609 4.267h-3.876v12.8h-4.267z"></path>
</symbol>
<symbol id="geolocation" viewBox="0 0 32 32">
<path d="M16 0c-6.203 0-11.25 5.047-11.25 11.25 0 2.096 0.581 4.141 1.679 5.916l8.93 14.391c0.171 0.276 0.472 0.443 0.797 0.443 0.003 0 0.005 0 0.007 0 0.327-0.003 0.629-0.175 0.797-0.456l8.703-14.53c1.038-1.737 1.587-3.73 1.587-5.764 0-6.203-5.047-11.25-11.25-11.25zM24.054 16.051l-7.912 13.21-8.119-13.084c-0.915-1.477-1.41-3.181-1.41-4.928 0-5.169 4.218-9.387 9.387-9.387s9.381 4.218 9.381 9.387c0 1.695-0.463 3.356-1.327 4.801z"></path>
<path d="M16 5.625c-3.102 0-5.625 2.523-5.625 5.625 0 3.082 2.482 5.625 5.625 5.625 3.181 0 5.625-2.577 5.625-5.625 0-3.102-2.523-5.625-5.625-5.625zM16 15.012c-2.079 0-3.762-1.69-3.762-3.762 0-2.068 1.695-3.763 3.762-3.763s3.756 1.695 3.756 3.763c0 2.043-1.645 3.762-3.756 3.762z"></path>
</symbol>
<symbol id="instagram" viewBox="0 0 32 32">
<path d="M10.24 1.92c-4.589 0-8.32 3.731-8.32 8.32v11.52c0 4.589 3.731 8.32 8.32 8.32h11.52c4.589 0 8.32-3.731 8.32-8.32v-11.52c0-4.589-3.731-8.32-8.32-8.32h-11.52zM23.68 7.040c0.704 0 1.28 0.576 1.28 1.28s-0.576 1.28-1.28 1.28c-0.704 0-1.28-0.576-1.28-1.28s0.576-1.28 1.28-1.28zM16 8.96c3.885 0 7.040 3.155 7.040 7.040s-3.155 7.040-7.040 7.040c-3.885 0-7.040-3.155-7.040-7.040s3.155-7.040 7.040-7.040zM16 10.24c-3.174 0-5.76 2.586-5.76 5.76s2.586 5.76 5.76 5.76c3.174 0 5.76-2.586 5.76-5.76s-2.586-5.76-5.76-5.76z"></path>
</symbol>
<symbol id="linkedin" viewBox="0 0 32 32">
<path d="M9.6 26.667h-5.333v-16h5.333v16zM6.934 8.533c-1.475 0-2.668-1.196-2.668-2.668s1.195-2.666 2.668-2.666c1.47 0 2.666 1.196 2.666 2.666 0 1.472-1.196 2.668-2.666 2.668zM28.8 26.667h-5.127v-7.787c0-1.857-0.035-4.245-2.666-4.245-2.67 0-3.081 2.022-3.081 4.111v7.921h-5.126v-16.012h4.922v2.188h0.069c0.685-1.259 2.358-2.586 4.854-2.586 5.195 0 6.155 3.316 6.155 7.628v8.782z"></path>
</symbol>
<symbol id="phone" viewBox="0 0 32 32">
<path d="M31.177 23.602l-3.978-3.978c-1.097-1.097-2.881-1.097-3.978 0l-1.808 1.808c-0.831 0.831-2.183 0.831-3.013 0l-7.838-7.844c-0.833-0.833-0.833-2.181 0-3.014 0.291-0.291 1.128-1.128 1.808-1.808 1.092-1.092 1.107-2.871-0.001-3.979l-3.977-3.965c-1.097-1.097-2.881-1.097-3.975-0.003-0.819 0.811-1.083 1.073-1.45 1.437-3.955 3.955-3.955 10.39-0 14.345l12.418 12.425c3.964 3.964 10.38 3.965 14.345 0l1.447-1.447c1.097-1.097 1.097-2.881 0-3.978zM5.739 2.149c0.366-0.366 0.96-0.366 1.327 0.001l3.977 3.965c0.366 0.366 0.366 0.96 0 1.326l-0.663 0.663-5.301-5.301 0.66-0.654zM16.711 27.701l-12.418-12.425c-3.060-3.060-3.228-7.865-0.517-11.125l5.285 5.285c-1.389 1.574-1.331 3.973 0.174 5.478l7.837 7.844c0 0 0 0 0 0 1.503 1.503 3.902 1.565 5.478 0.174l5.285 5.285c-3.25 2.706-8.044 2.564-11.125-0.517zM29.851 26.254l-0.663 0.663-5.304-5.304 0.663-0.663c0.366-0.366 0.96-0.366 1.326 0l3.978 3.978c0.366 0.366 0.366 0.96 0 1.326z"></path>
</symbol>
<symbol id="right-arrow" viewBox="0 0 32 32">
<path d="M31.633 15.115c-0-0-0.001-0.001-0.001-0.001l-6.531-6.5c-0.489-0.487-1.281-0.485-1.768 0.004s-0.485 1.281 0.004 1.768l4.385 4.364h-26.472c-0.69 0-1.25 0.56-1.25 1.25s0.56 1.25 1.25 1.25h26.472l-4.385 4.364c-0.489 0.487-0.491 1.278-0.004 1.768s1.279 0.491 1.768 0.004l6.531-6.5c0-0 0.001-0.001 0.001-0.001 0.49-0.489 0.488-1.283 0-1.77z"></path>
</symbol>
<symbol id="twitter" viewBox="0 0 32 32">
<path d="M32 5.734c-1.198 0.531-2.401 0.932-3.734 1.068 1.333-0.802 2.401-2.135 2.932-3.604-1.333 0.802-2.667 1.333-4.13 1.604-1.333-1.333-3.068-2.135-4.932-2.135-3.604 0-6.536 2.932-6.536 6.531 0 0.536 0 1.068 0.135 1.469-5.469-0.266-10.266-2.802-13.469-6.802-0.667 0.938-0.932 2.135-0.932 3.333 0 2.271 1.198 4.271 2.932 5.469-1.068-0.135-2.13-0.401-2.932-0.802 0 0 0 0 0 0.135 0 3.198 2.266 5.865 5.198 6.401-0.531 0.13-1.063 0.266-1.729 0.266-0.401 0-0.802 0-1.203-0.135 0.802 2.667 3.203 4.537 6.135 4.537-2.266 1.734-5.068 2.797-8.135 2.797-0.531 0-1.068 0-1.599-0.13 2.932 1.865 6.401 2.932 10 2.932 12.135 0 18.667-10 18.667-18.667 0-0.266 0-0.531 0-0.802 1.333-0.932 2.401-2.13 3.333-3.464z"></path>
</symbol>
</defs>
</svg>
